<svg id="Layer_2" xmlns="http://www.w3.org/2000/svg" viewBox="0 0 134 82"><style>.st0{fill:#fff}.st1{fill:#d4202d}</style><path class="st0" d="M14.5 75h-2.3v-2.3c-1 1.5-2.9 2.7-5 2.7C3.1 75.4 0 72 0 67.9c0-4.2 3.1-7.5 7.2-7.5 2.1 0 3.9 1.1 4.9 2.5v-9h2.4V75zM7.2 62.6c-2.7 0-4.8 2.4-4.8 5.3s2.1 5.2 4.8 5.2c2.7 0 4.9-2.4 4.9-5.2 0-2.9-2.2-5.3-4.9-5.3zM30.5 75h-2.3v-2.3c-1 1.5-2.9 2.7-5 2.7-4.1 0-7.2-3.4-7.2-7.5s3.1-7.5 7.2-7.5c2.1 0 4 1.2 5 2.6v-2.3h2.3V75zm-7.3-12.4c-2.7 0-4.8 2.4-4.8 5.3s2.1 5.2 4.8 5.2c2.7 0 4.9-2.4 4.9-5.2.1-2.9-2.2-5.3-4.9-5.3zm17 12.4c-3.4.4-5.7-1.6-5.7-5.2V63h-2v-2.2h2V54h2.4v6.8h3.3V63h-3.3v6.8c0 2.5 1.6 3.2 3.3 3V75zm4.6 0h-2.4V60.7h2.4V75zm15.1 0h-2.4v-8.7c0-2.2-1.2-3.8-3.5-3.8-2.2 0-3.8 1.6-3.8 3.7V75h-2.4V60.7h2.3v1.6c1-1.2 2.5-1.9 4.2-1.9 3.5 0 5.5 2.5 5.5 6l.1 8.6zm16.5-.7c0 4.6-3 7.7-7.4 7.7-3.4 0-6.1-1.8-6.8-4.7h2.5c1 2.1 3.2 2.4 4.3 2.4 3.7 0 5-2.8 5-5.4v-1.5c-1 1.4-2.8 2.5-4.9 2.5-4.1 0-7.2-3.4-7.2-7.5s3.1-7.5 7.2-7.5c2.1 0 4 1.2 5 2.6v-2.3h2.3v13.7zm-7.3-11.7c-2.7 0-4.8 2.4-4.8 5.3s2.1 5.3 4.8 5.3c2.7 0 4.9-2.4 4.9-5.3 0-3-2.2-5.3-4.9-5.3zM80.9 75h-2.8v-2.9h2.8V75zm8.1.3c-4 0-7.2-3.3-7.2-7.4 0-4.1 3.2-7.5 7.2-7.5 3.2 0 5.7 1.9 6.7 4.8h-2.6c-.8-1.6-2.3-2.5-4.2-2.5-2.7 0-4.8 2.4-4.8 5.3s2.2 5.2 4.8 5.2c1.9 0 3.4-1 4.2-2.5h2.6c-1 2.7-3.5 4.6-6.7 4.6zm22.5-7.4c0 4.1-3.1 7.4-7.3 7.4-4.1 0-7.3-3.3-7.3-7.4 0-4.2 3.2-7.5 7.3-7.5 4.2 0 7.3 3.4 7.3 7.5zm-2.4 0c0-3-2.2-5.4-4.9-5.4s-4.8 2.4-4.8 5.4c0 2.9 2.2 5.3 4.8 5.3 2.7 0 4.9-2.4 4.9-5.3zM134 75h-2.4v-8.9c0-2.2-1.1-3.6-3.3-3.6-2 0-3.4 1.6-3.4 3.7V75h-2.4v-8.9c0-2.2-1.1-3.6-3.2-3.6-2 0-3.4 1.6-3.4 3.7V75h-2.4V60.7h2.3v1.6c.9-1.2 2.2-1.9 3.8-1.9 2 0 3.6.9 4.5 2.4.9-1.5 2.4-2.4 4.5-2.4 3.3 0 5.4 2.2 5.4 5.8V75z"/><ellipse class="st1" cx="43.8" cy="53.9" rx="3.1" ry="3"/><path class="st1" d="M75.9 22.2c5.1-5.1 5-13.3-.1-18.4s-13.4-5.1-18.5 0c-5.7 5.6-6.8 18-7.3 21.6-.7 5.6-.3 22.6-.3 22.6s17.2.4 22.9-.3c3.6-.5 15.9-1.2 21.9-7.1 5.1-5.1 5.1-13.3 0-18.3-5.1-5.1-13.5-5.2-18.6-.1"/></svg>